<svg xmlns="http://www.w3.org/2000/svg" width="185.702" height="150.1" viewBox="0 0 185.702 150.1">
  <g id="Group_18" data-name="Group 18" transform="translate(642 -690)">
    <path id="Path_12" data-name="Path 12" d="M101-201.1c0,29.8.2,54.1.5,54.1s8.7-11.7,16.7-23.5l2.8-4V-236h33.3c35.9,0,41,.6,50.8,5.5,6.4,3.3,12.6,9.5,15.2,15.4,3.2,7.1,3.5,19.9.7,27.3C215.5-173,198.3-163,178.6-163h-6.3l-3.2,4.5-3.3,4.6,11,14.7,11.1,14.7-15.5.3c-8.5.1-22.4.1-31,0l-15.5-.3L152.6-160c14.6-19.5,27-35.5,27.4-35.5s4.6,5.2,9.4,11.5,9.1,11.6,9.6,11.8c1.2.5,8.8-4.8,12.4-8.7l2.9-3-16.9-22.6C188.1-218.8,180.3-229,180-229s-2.6,2.8-5.1,6.3c-2.6,3.4-23.4,31.1-46.3,61.6-22.9,30.4-41.5,55.5-41.3,55.7s31.8.3,70.1.2l69.7-.3-15.5-20.7C203-137.6,196-147.4,196-147.8c0-.5,2.5-1.4,5.5-2.1,8.8-2,20.6-8.4,27.3-14.9,10-9.7,14.5-21.3,14.4-37.1-.3-24.7-15.2-42.8-41.7-50.4-6.5-1.9-10.5-2.1-53.7-2.4l-46.8-.4Z" transform="translate(-729.298 945.1)"/>
    <path id="Path_13" data-name="Path 13" d="M230.7-157.2a51.156,51.156,0,0,1-7.6,5.2c-3.4,1.9-5.9,4-5.7,4.7.3.6,7.4,10.4,15.8,21.7l15.3,20.5,12.3.1c6.7,0,12.2-.2,12.2-.5,0-.6-40-53.5-40.4-53.5A8.3,8.3,0,0,0,230.7-157.2Z" transform="translate(-729.298 945.1)"/>
  </g>
</svg>
